<svg width="38" height="41" viewBox="0 0 38 41" fill="none" xmlns="http://www.w3.org/2000/svg">
<g clip-path="url(#clip0_494_2486)">
<path d="M4.57688 22.7042H9.659C9.8839 22.7042 10.0996 22.6159 10.2586 22.4588C10.4176 22.3016 10.507 22.0885 10.507 21.8662V0.938709C10.507 0.716457 10.4176 0.503308 10.2586 0.346153C10.0996 0.188997 9.8839 0.100708 9.659 0.100708L4.57688 0.100708C4.35198 0.100708 4.1363 0.188997 3.97727 0.346153C3.81824 0.503308 3.72891 0.716457 3.72891 0.938709V21.8662C3.72891 22.0885 3.81824 22.3016 3.97727 22.4588C4.1363 22.6159 4.35198 22.7042 4.57688 22.7042ZM5.42295 1.77483H8.81103V21.0301H5.42295V1.77483ZM24.9073 40.2835H36.7637C36.9886 40.2835 37.2043 40.1952 37.3633 40.038C37.5223 39.8809 37.6117 39.6677 37.6117 39.4455V37.7714C37.6099 36.5075 37.2463 35.27 36.5628 34.2017C35.8793 33.1335 34.9039 32.2782 33.7493 31.7348C34.5024 31.1383 35.0494 30.3254 35.3148 29.4085C35.5803 28.4916 35.5511 27.5158 35.2312 26.616C34.9114 25.7162 34.3167 24.9367 33.5292 24.3853C32.7418 23.8339 31.8006 23.5377 30.8355 23.5377C29.8704 23.5377 28.9292 23.8339 28.1417 24.3853C27.3543 24.9367 26.7596 25.7162 26.4397 26.616C26.1199 27.5158 26.0907 28.4916 26.3561 29.4085C26.6216 30.3254 27.1686 31.1383 27.9217 31.7348C26.6456 32.3405 25.5916 33.3232 24.9054 34.5468C24.2192 33.3232 23.1652 32.3405 21.8891 31.7348C22.6422 31.1383 23.1892 30.3254 23.4547 29.4085C23.7201 28.4916 23.6909 27.5158 23.371 26.616C23.0512 25.7162 22.4565 24.9367 21.669 24.3853C20.8816 23.8339 19.9404 23.5377 18.9753 23.5377C18.0102 23.5377 17.069 23.8339 16.2815 24.3853C15.4941 24.9367 14.8994 25.7162 14.5795 26.616C14.2597 27.5158 14.2305 28.4916 14.4959 29.4085C14.7614 30.3254 15.3084 31.1383 16.0615 31.7348C14.7854 32.3405 13.7314 33.3232 13.0452 34.5468C12.359 33.3232 11.305 32.3405 10.0289 31.7348C10.782 31.1383 11.329 30.3254 11.5945 29.4085C11.8599 28.4916 11.8307 27.5158 11.5108 26.616C11.191 25.7162 10.5963 24.9367 9.80884 24.3853C9.02143 23.8339 8.08017 23.5377 7.11509 23.5377C6.15002 23.5377 5.20876 23.8339 4.42134 24.3853C3.63393 24.9367 3.03921 25.7162 2.71935 26.616C2.39949 27.5158 2.37027 28.4916 2.63573 29.4085C2.90118 30.3254 3.44822 31.1383 4.20126 31.7348C3.04672 32.2786 2.0715 33.1343 1.38836 34.2029C0.705216 35.2715 0.342041 36.5093 0.34082 37.7732L0.34082 39.4474C0.34082 39.6696 0.43016 39.8828 0.589185 40.0399C0.74821 40.1971 0.963895 40.2854 1.18879 40.2854L24.9073 40.2835ZM27.8723 28.1447C27.8723 27.5651 28.0462 26.9986 28.372 26.5167C28.6978 26.0349 29.1609 25.6593 29.7027 25.4375C30.2445 25.2157 30.8407 25.1577 31.4158 25.2708C31.991 25.3838 32.5193 25.6629 32.934 26.0727C33.3487 26.4825 33.6311 27.0046 33.7455 27.573C33.8599 28.1414 33.8011 28.7306 33.5767 29.266C33.3523 29.8014 32.9723 30.2591 32.4847 30.581C31.9971 30.903 31.4238 31.0749 30.8374 31.0749C30.051 31.0749 29.2968 30.7661 28.7408 30.2166C28.1847 29.6671 27.8723 28.9218 27.8723 28.1447ZM25.7609 37.7732C25.7479 37.1054 25.8697 36.4417 26.1193 35.8209C26.3689 35.2002 26.7412 34.6348 27.2145 34.158C27.6878 33.6811 28.2526 33.3023 28.8758 33.0437C29.499 32.7851 30.1681 32.6519 30.844 32.6519C31.5199 32.6519 32.1891 32.7851 32.8123 33.0437C33.4355 33.3023 34.0002 33.6811 34.4735 34.158C34.9468 34.6348 35.3192 35.2002 35.5687 35.8209C35.8183 36.4417 35.9402 37.1054 35.9271 37.7732V38.6112H25.7609V37.7732ZM16.0197 28.1465C16.0197 27.567 16.1936 27.0005 16.5194 26.5186C16.8452 26.0367 17.3083 25.6612 17.8501 25.4394C18.3919 25.2176 18.9881 25.1596 19.5632 25.2727C20.1384 25.3857 20.6667 25.6648 21.0814 26.0746C21.496 26.4844 21.7784 27.0065 21.8929 27.5749C22.0073 28.1433 21.9485 28.7325 21.7241 29.2679C21.4997 29.8033 21.1197 30.2609 20.6321 30.5829C20.1445 30.9049 19.5712 31.0767 18.9848 31.0767C18.5946 31.0777 18.2081 31.0026 17.8473 30.8557C17.4866 30.7087 17.1587 30.4929 16.8826 30.2205C16.6064 29.9481 16.3874 29.6245 16.238 29.2683C16.0886 28.9121 16.0119 28.5303 16.0121 28.1447L16.0197 28.1465ZM13.8951 37.7732C13.882 37.1054 14.0038 36.4417 14.2534 35.8209C14.503 35.2002 14.8753 34.6348 15.3486 34.158C15.8219 33.6811 16.3867 33.3023 17.0099 33.0437C17.6331 32.7851 18.3022 32.6519 18.9781 32.6519C19.654 32.6519 20.3232 32.7851 20.9464 33.0437C21.5696 33.3023 22.1343 33.6811 22.6076 34.158C23.0809 34.6348 23.4533 35.2002 23.7029 35.8209C23.9524 36.4417 24.0743 37.1054 24.0612 37.7732V38.6112H13.8951V37.7732ZM4.15194 28.1447C4.15194 27.5651 4.32584 26.9986 4.65164 26.5167C4.97745 26.0349 5.44052 25.6593 5.98232 25.4375C6.52411 25.2157 7.12028 25.1577 7.69544 25.2708C8.27061 25.3838 8.79893 25.6629 9.2136 26.0727C9.62827 26.4825 9.91066 27.0046 10.0251 27.573C10.1395 28.1414 10.0808 28.7306 9.85634 29.266C9.63192 29.8014 9.25188 30.2591 8.76428 30.581C8.27668 30.903 7.70342 31.0749 7.11699 31.0749C6.33061 31.0749 5.57644 30.7661 5.02038 30.2166C4.46433 29.6671 4.15194 28.9218 4.15194 28.1447ZM12.1991 38.6094H2.03486V37.7714C2.02181 37.1035 2.14363 36.4398 2.39322 35.8191C2.6428 35.1983 3.01514 34.633 3.48844 34.1561C3.96174 33.6793 4.52651 33.3004 5.14971 33.0419C5.77291 32.7833 6.44203 32.6501 7.11794 32.6501C7.79385 32.6501 8.46297 32.7833 9.08617 33.0419C9.70937 33.3004 10.2741 33.6793 10.7474 34.1561C11.2207 34.633 11.5931 35.1983 11.8427 35.8191C12.0922 36.4398 12.2141 37.1035 12.201 37.7714L12.1991 38.6094ZM16.4371 22.7042H21.5192C21.7441 22.7042 21.9598 22.6159 22.1188 22.4588C22.2778 22.3016 22.3672 22.0885 22.3672 21.8662V9.30559C22.3657 9.08432 22.2757 8.87261 22.1168 8.71667C21.9579 8.56073 21.7431 8.47321 21.5192 8.47322H16.4371C16.2122 8.47322 15.9965 8.5615 15.8375 8.71866C15.6784 8.87582 15.5891 9.08896 15.5891 9.31122V21.8719C15.5906 22.0931 15.6806 22.3048 15.8395 22.4608C15.9983 22.6167 16.2132 22.7042 16.4371 22.7042ZM17.285 10.1436H20.6731V21.0338H17.2831L17.285 10.1436ZM28.2973 22.7042H33.3794C33.6043 22.7042 33.82 22.6159 33.979 22.4588C34.138 22.3016 34.2274 22.0885 34.2274 21.8662V4.28696C34.2274 4.06471 34.138 3.85156 33.979 3.69441C33.82 3.53725 33.6043 3.44896 33.3794 3.44896H28.2973C28.0724 3.44896 27.8567 3.53725 27.6977 3.69441C27.5386 3.85156 27.4493 4.06471 27.4493 4.28696V21.8681C27.4498 22.09 27.5394 22.3027 27.6983 22.4594C27.8573 22.6162 28.0727 22.7042 28.2973 22.7042ZM29.1452 5.12309H32.5333V21.0301H29.1433L29.1452 5.12309Z" fill="#F5F6FF"/>
</g>
<defs>
<clipPath id="clip0_494_2486">
<rect width="37.2727" height="40.1847" fill="white" transform="translate(0.34082 0.100708)"/>
</clipPath>
</defs>
</svg>
