<svg width="46" height="14" viewBox="0 0 46 14" fill="none" xmlns="http://www.w3.org/2000/svg">
<g clip-path="url(#clip0_494_2483)">
<path d="M0.631652 1.14603V8.23827H3.35403C3.43347 7.93782 3.61782 7.6748 3.8745 7.49567C4.13119 7.31655 4.44368 7.23286 4.75675 7.25939C5.76295 7.25939 6.30837 7.82937 6.30837 8.90583C6.30837 9.93272 5.84602 10.6994 4.77399 10.6994C4.41816 10.7262 4.0651 10.6201 3.78452 10.4022C3.50394 10.1842 3.31622 9.87029 3.25843 9.52227H0.5C0.594037 11.5761 2.16133 13.0599 4.87273 13.0599C5.43367 13.108 5.99845 13.0337 6.52709 12.8421C7.05574 12.6506 7.53531 12.3466 7.93187 11.9516C8.32843 11.5566 8.63228 11.0803 8.8219 10.5563C9.01153 10.0324 9.08229 9.47371 9.02918 8.91977C9.08616 8.42045 9.03398 7.91487 8.87617 7.43721C8.71837 6.95954 8.45861 6.52093 8.11448 6.15103C7.77035 5.78114 7.34985 5.48858 6.88144 5.29314C6.41302 5.09769 5.90759 5.00393 5.39934 5.01818C4.99428 5.00041 4.58973 5.06338 4.20981 5.20335C3.82988 5.34331 3.48235 5.55741 3.1879 5.83288V3.58703H8.33644V1.14603H0.631652ZM10.3833 6.94652C10.3833 10.4686 11.587 13.0119 15.0194 13.0119C18.4517 13.0119 19.6554 10.4686 19.6554 6.94652C19.6554 3.45693 18.4517 0.913696 15.0194 0.913696C11.587 0.913696 10.3833 3.45693 10.3833 6.94652ZM16.8844 6.94652C16.8844 8.83768 16.687 10.4036 15.0194 10.4036C13.3518 10.4036 13.1543 8.83768 13.1543 6.94652C13.1543 5.12041 13.3518 3.52198 15.0194 3.52198C16.687 3.52198 16.8829 5.12041 16.8829 6.94652H16.8844ZM24.2084 11.6907C24.2067 11.4801 24.1615 11.2721 24.0757 11.0793C23.9899 10.8866 23.8652 10.7132 23.7093 10.5697C23.5534 10.4261 23.3695 10.3156 23.1688 10.2447C22.9682 10.1738 22.755 10.144 22.5423 10.1573C22.3283 10.1416 22.1133 10.1695 21.9106 10.2393C21.7079 10.3091 21.5219 10.4193 21.3641 10.5631C21.2062 10.7068 21.08 10.8811 20.9931 11.0751C20.9063 11.269 20.8606 11.4786 20.8591 11.6907C20.8638 11.8999 20.9116 12.1059 20.9996 12.2963C21.0876 12.4866 21.2139 12.6572 21.3708 12.7977C21.5278 12.9381 21.7121 13.0455 21.9124 13.1132C22.1127 13.1809 22.325 13.2076 22.5361 13.1915C22.747 13.2076 22.9589 13.1809 23.159 13.1132C23.3591 13.0454 23.5431 12.938 23.6997 12.7974C23.8562 12.6569 23.9821 12.4863 24.0696 12.2959C24.1571 12.1056 24.2043 11.8997 24.2084 11.6907ZM24.2084 5.05536C24.2067 4.84478 24.1615 4.63677 24.0757 4.44402C23.9899 4.25127 23.8652 4.07784 23.7093 3.93433C23.5534 3.79081 23.3695 3.68022 23.1688 3.60933C22.9682 3.53843 22.755 3.50871 22.5423 3.52198C22.3283 3.50628 22.1133 3.53419 21.9106 3.60399C21.7079 3.67379 21.5219 3.78399 21.3641 3.92775C21.2062 4.07152 21.08 4.24578 20.9931 4.43975C20.9063 4.63372 20.8606 4.84325 20.8591 5.05536C20.8639 5.26499 20.9121 5.47143 21.0005 5.66202C21.089 5.85261 21.2159 6.02334 21.3735 6.16372C21.5312 6.30411 21.7161 6.4112 21.9171 6.47842C22.1181 6.54564 22.3309 6.57158 22.5423 6.55465C22.7526 6.56983 22.9638 6.54256 23.163 6.47448C23.3623 6.40641 23.5454 6.29896 23.7013 6.15869C23.8571 6.01842 23.9825 5.84826 24.0697 5.65857C24.1568 5.46889 24.204 5.26365 24.2084 5.05536ZM26.2051 1.14603V8.23827H28.9275C29.0069 7.93782 29.1913 7.6748 29.4479 7.49567C29.7046 7.31655 30.0171 7.23286 30.3302 7.25939C31.3364 7.25939 31.8818 7.82937 31.8818 8.90583C31.8818 9.93272 31.4195 10.6994 30.3474 10.6994C29.9918 10.7267 29.6387 10.6212 29.3579 10.4039C29.0771 10.1865 28.8888 9.87311 28.8303 9.52537H26.0719C26.1722 11.5761 27.7395 13.0599 30.4446 13.0599C31.0058 13.1085 31.5709 13.0345 32.1 12.8432C32.629 12.6519 33.109 12.3479 33.5059 11.9529C33.9028 11.5578 34.2069 11.0813 34.3967 10.5572C34.5865 10.033 34.6574 9.474 34.6042 8.91977C34.6612 8.42032 34.609 7.9146 34.4511 7.43682C34.2932 6.95905 34.0333 6.52036 33.689 6.15043C33.3447 5.78051 32.924 5.48798 32.4554 5.29264C31.9868 5.0973 31.4812 5.0037 30.9728 5.01818C30.5677 5.00041 30.1632 5.06338 29.7833 5.20335C29.4033 5.34331 29.0558 5.55741 28.7613 5.83288V3.58703H33.9083V1.14603H26.2051ZM35.9552 6.95116C35.9552 10.4733 37.1589 13.0165 40.5912 13.0165C44.0236 13.0165 45.2273 10.4733 45.2273 6.95116C45.2273 3.46158 44.0236 0.918343 40.5912 0.918343C37.1589 0.918343 35.9552 3.45693 35.9552 6.94652V6.95116ZM42.4563 6.95116C42.4563 8.84232 42.2588 10.4082 40.5912 10.4082C38.9236 10.4082 38.7262 8.84232 38.7262 6.95116C38.7262 5.12505 38.9236 3.52663 40.5912 3.52663C42.2588 3.52663 42.4547 5.12041 42.4547 6.94652L42.4563 6.95116Z" fill="#DFE1FC"/>
</g>
<defs>
<clipPath id="clip0_494_2483">
<rect width="44.7273" height="12.2778" fill="white" transform="translate(0.5 0.913696)"/>
</clipPath>
</defs>
</svg>
