<svg width="38" height="39" viewBox="0 0 38 39" fill="none" xmlns="http://www.w3.org/2000/svg">
<g clip-path="url(#clip0_494_2496)">
<path d="M18.4022 33.8284L16.7653 37.2185C16.683 37.3909 16.6567 37.5843 16.6898 37.7721C16.7229 37.9599 16.8138 38.1331 16.9502 38.2679C17.0867 38.4027 17.2619 38.4926 17.4519 38.5253C17.642 38.558 17.8376 38.5319 18.0121 38.4506L34.0757 30.5899H34.154L18.0121 22.7291C17.8376 22.6478 17.642 22.6217 17.4519 22.6544C17.2619 22.6871 17.0867 22.7771 16.9502 22.9119C16.8138 23.0467 16.7229 23.2198 16.6898 23.4076C16.6567 23.5955 16.683 23.7888 16.7653 23.9613L18.4022 27.4288H17.9338C8.88939 25.6596 1.79355 23.1936 1.79355 13.9409C1.79355 13.17 1.87189 12.3991 1.95023 11.6348C0.665152 14.225 -0.00200987 17.0719 4.54816e-06 19.9568C4.54816e-06 29.8206 7.87593 32.5946 17.7004 33.6736L18.4022 33.8284ZM18.8656 4.85297L20.6641 1.14992C20.7342 0.998912 20.7559 0.83032 20.7262 0.666794C20.6965 0.503269 20.6168 0.352647 20.4979 0.235169C20.3791 0.11769 20.2267 0.0389853 20.0612 0.00963C19.8957 -0.0197253 19.7251 0.00167569 19.5723 0.0709572L3.27539 8.08985H3.19705L19.5723 16.1038C19.7251 16.1731 19.8957 16.1945 20.0612 16.1651C20.2267 16.1358 20.3791 16.0571 20.4979 15.9396C20.6168 15.8221 20.6965 15.6715 20.7262 15.508C20.7559 15.3444 20.7342 15.1759 20.6641 15.0248L18.8656 11.3267H19.334C28.38 13.0218 35.4759 15.4877 35.4759 24.8129C35.4759 25.5838 35.3975 26.3547 35.3192 27.1191C36.6042 24.5288 37.2714 21.6819 37.2694 18.7971C37.2694 8.85583 29.3935 6.08183 19.569 5.00287L18.8656 4.85297Z" fill="#DFE1FC"/>
</g>
<defs>
<clipPath id="clip0_494_2496">
<rect width="37.2727" height="38.5477" fill="white"/>
</clipPath>
</defs>
</svg>
