<svg width="38" height="38" viewBox="0 0 38 38" fill="none" xmlns="http://www.w3.org/2000/svg">
<g clip-path="url(#clip0_494_2490)">
<path d="M12.8474 6.3432C12.8093 6.15047 12.7159 5.97263 12.5784 5.83093L11.8124 5.04403C11.1959 4.4277 10.4622 3.9379 9.65343 3.6028C8.8447 3.26769 7.9769 3.0939 7.09995 3.0914C6.22301 3.0889 5.35422 3.25776 4.54354 3.58825C3.73286 3.91875 2.99629 4.40436 2.3762 5.01717C1.7561 5.62997 1.26471 6.35788 0.930282 7.15903C0.595855 7.96018 0.424992 8.81876 0.427518 9.68539C0.430044 10.552 0.60591 11.4096 0.945001 12.2088C1.28409 13.0081 1.77972 13.7332 2.40338 14.3424L3.19964 15.1205C3.34302 15.2565 3.52298 15.3488 3.71801 15.3864C2.67684 17.9085 2.29335 20.6487 2.60273 23.3554C2.9121 26.0622 3.90443 28.6488 5.48866 30.8778L3.86408 32.4622C3.53997 32.7495 3.27847 33.099 3.09551 33.4895C2.91256 33.8799 2.81198 34.3031 2.79992 34.7332C2.78785 35.1633 2.86456 35.5913 3.02534 35.9912C3.18613 36.3911 3.42764 36.7544 3.73515 37.059C4.04265 37.3636 4.40971 37.6031 4.81394 37.7629C5.21818 37.9228 5.65112 37.9996 6.08637 37.9887C6.52162 37.9778 6.95007 37.8794 7.34558 37.6995C7.7411 37.5196 8.09541 37.262 8.38689 36.9424L10.1059 35.2436C12.8595 37.008 16.0839 37.9185 19.3651 37.8583C22.6462 37.7981 25.8342 36.7698 28.5196 34.9056L30.5895 36.9512C30.881 37.2708 31.2353 37.5284 31.6308 37.7083C32.0263 37.8882 32.4548 37.9866 32.89 37.9975C33.3253 38.0084 33.7582 37.9316 34.1624 37.7718C34.5667 37.6119 34.9337 37.3724 35.2412 37.0678C35.5488 36.7632 35.7903 36.3999 35.951 36C36.1118 35.6001 36.1885 35.1721 36.1765 34.742C36.1644 34.3119 36.0638 33.8887 35.8809 33.4983C35.6979 33.1078 35.4364 32.7583 35.1123 32.471L32.9747 30.3585C34.7126 27.7237 35.6316 24.6436 35.6182 21.4985C35.6199 19.3947 35.2085 17.3106 34.4069 15.3617C34.6247 15.3327 34.8274 15.2359 34.9858 15.0853L35.7821 14.3072C37.027 13.077 37.7263 11.4084 37.7263 9.66859C37.7263 7.92876 37.027 6.26019 35.7821 5.02995C34.5372 3.7997 32.8488 3.10856 31.0883 3.10856C29.3277 3.10856 27.6393 3.7997 26.3944 5.02995L25.6071 5.81684C25.4669 5.9676 25.3756 6.15648 25.3452 6.35905C23.6747 5.6803 21.9009 5.28282 20.0974 5.1831V5.13557H22.1673C22.4418 5.13557 22.7051 5.02781 22.8992 4.836C23.0932 4.64419 23.2023 4.38404 23.2023 4.11278V1.04441C23.2023 0.90965 23.1753 0.776218 23.123 0.651782C23.0707 0.527346 22.9939 0.414359 22.8973 0.319315C22.8006 0.224271 22.6859 0.149043 22.5597 0.0979543C22.4335 0.0468659 22.2983 0.0209242 22.162 0.0216201H15.9522C15.6778 0.0216201 15.4145 0.129378 15.2204 0.321188C15.0263 0.512999 14.9173 0.773149 14.9173 1.04441V4.11278C14.9173 4.38404 15.0263 4.64419 15.2204 4.836C15.4145 5.02781 15.6778 5.13557 15.9522 5.13557H18.0222V5.18662C16.2448 5.28957 14.4966 5.6803 12.8474 6.3432ZM2.49779 9.68795C2.49402 9.09483 2.61027 8.50694 2.8397 7.95885C3.06913 7.41075 3.40712 6.91351 3.83379 6.49636C4.68944 5.65227 5.84903 5.1782 7.05802 5.1782C8.26701 5.1782 9.4266 5.65227 10.2822 6.49636L10.3446 6.54741L3.93177 12.9306L3.87298 12.8725C3.4397 12.4604 3.09456 11.9664 2.85803 11.42C2.6215 10.8736 2.4984 10.2858 2.49601 9.69148L2.49779 9.68795ZM6.87632 35.4954C6.66274 35.6961 6.37926 35.808 6.08451 35.808C5.78977 35.808 5.50629 35.6961 5.29271 35.4954C5.18763 35.3921 5.10424 35.2694 5.04734 35.1342C4.99043 34.999 4.96114 34.854 4.96114 34.7076C4.96114 34.5612 4.99043 34.4162 5.04734 34.281C5.10424 34.1458 5.18763 34.023 5.29271 33.9198L6.74094 32.4886C6.99923 32.7756 7.27534 33.0519 7.55857 33.3178C7.80618 33.5536 8.06625 33.7772 8.32455 34.0025L6.87632 35.4954ZM33.942 34.7014C33.9408 34.8485 33.9099 34.9938 33.8512 35.1289C33.7925 35.264 33.7071 35.3862 33.6 35.4883C33.3864 35.6891 33.1029 35.801 32.8082 35.801C32.5134 35.801 32.2299 35.6891 32.0163 35.4883L30.1228 33.6276C30.4434 33.3406 30.7534 33.0343 31.0544 32.7175C31.3555 32.4006 31.4891 32.258 31.6957 32.0133L33.6 33.9057C33.715 34.0039 33.8084 34.1244 33.8743 34.2598C33.9402 34.3952 33.9771 34.5425 33.9829 34.6926L33.942 34.7014ZM30.7961 29.8832C29.4504 31.7153 27.6859 33.2075 25.6463 34.2384C23.6068 35.2693 21.3497 35.8097 19.0589 35.8158C16.0084 35.8255 13.0345 34.872 10.5708 33.0942C9.47487 32.3166 8.49866 31.3863 7.67258 30.3321C5.65426 27.8205 4.55946 24.7057 4.5677 21.4985C4.61001 17.7281 6.15528 14.1263 8.86815 11.4749C11.581 8.82349 15.2425 7.33641 19.058 7.33641C22.8735 7.33641 26.535 8.82349 29.2479 11.4749C31.9607 14.1263 33.506 17.7281 33.5483 21.4985C33.5586 24.5137 32.5937 27.4533 30.7944 29.8885L30.7961 29.8832ZM27.8658 6.49636C28.287 6.06783 28.7901 5.72632 29.346 5.49168C29.9019 5.25705 30.4994 5.13397 31.1039 5.1296C31.7083 5.12524 32.3076 5.23967 32.8669 5.46626C33.4262 5.69284 33.9343 6.02704 34.3618 6.44944C34.7892 6.87184 35.1274 7.374 35.3566 7.92672C35.5859 8.47944 35.7017 9.07169 35.6973 9.66903C35.6929 10.2664 35.5683 10.8569 35.3309 11.4062C35.0935 11.9556 34.7479 12.4528 34.3143 12.869L34.2626 12.9306L27.8035 6.54741L27.8658 6.49636ZM16.9872 2.0672H21.127V3.08999H16.9872V2.0672Z" fill="#F5F6FF"/>
<path d="M19.0571 9.22669C15.7633 9.22669 12.6043 10.5198 10.2752 12.8215C7.94613 15.1232 6.63765 18.245 6.63765 21.5002C6.62769 24.252 7.56561 26.9253 9.29719 29.0804C10.0132 29.9861 10.8608 30.7822 11.8124 31.4429C13.4002 32.5732 15.2358 33.3164 17.1696 33.612C19.1034 33.9075 21.0805 33.747 22.9396 33.1435C24.7986 32.54 26.4869 31.5106 27.8667 30.1393C29.2464 28.7681 30.2785 27.0939 30.8787 25.2533C31.4789 23.4128 31.6302 21.458 31.3203 19.5487C31.0103 17.6393 30.2479 15.8294 29.0953 14.2668C27.9426 12.7041 26.4324 11.4329 24.6879 10.557C22.9433 9.68109 21.0139 9.22525 19.0571 9.22669ZM27.4401 27.4855C26.643 28.579 25.635 29.506 24.4742 30.2133C23.3134 30.9205 22.0226 31.3941 20.6759 31.6068C19.3293 31.8194 17.9534 31.767 16.6273 31.4525C15.3013 31.138 14.0512 30.5675 12.9489 29.774C12.1659 29.2222 11.4686 28.5603 10.879 27.8094C9.45167 26.01 8.68537 23.7847 8.70579 21.4984C8.70579 18.7856 9.79628 16.1838 11.7374 14.2656C13.6785 12.3473 16.3111 11.2696 19.0563 11.2696C21.8014 11.2696 24.4341 12.3473 26.3751 14.2656C28.3162 16.1838 29.4067 18.7856 29.4067 21.4984C29.4148 23.6501 28.7246 25.7481 27.4401 27.4855Z" fill="#F5F6FF"/>
<path d="M25.3292 17.9231C25.1927 17.6892 24.9681 17.5182 24.7045 17.4473C24.4408 17.3764 24.1595 17.4114 23.9219 17.5446C23.7847 17.3086 23.5582 17.1362 23.2923 17.0652C23.0264 16.9942 22.7428 17.0305 22.504 17.1662C22.2652 17.3018 22.0906 17.5256 22.0188 17.7884C21.947 18.0512 21.9837 18.3314 22.121 18.5674L21.086 19.1818C20.8031 18.9399 20.4768 18.7524 20.1241 18.629V17.4126C20.3986 17.4126 20.6618 17.3049 20.8559 17.113C21.05 16.9212 21.1591 16.6611 21.1591 16.3898C21.1591 16.1186 21.05 15.8584 20.8559 15.6666C20.6618 15.4748 20.3986 15.367 20.1241 15.367C20.1241 15.0958 20.0151 14.8356 19.821 14.6438C19.6269 14.452 19.3636 14.3442 19.0891 14.3442C18.8147 14.3442 18.5514 14.452 18.3573 14.6438C18.1632 14.8356 18.0542 15.0958 18.0542 15.367C17.7797 15.367 17.5165 15.4748 17.3224 15.6666C17.1283 15.8584 17.0192 16.1186 17.0192 16.3898C17.0192 16.6611 17.1283 16.9212 17.3224 17.113C17.5165 17.3049 17.7797 17.4126 18.0542 17.4126V18.629C17.7015 18.7524 17.3752 18.9399 17.0923 19.1818L16.0573 18.5674C16.1946 18.3314 16.2313 18.0512 16.1595 17.7884C16.0877 17.5256 15.9131 17.3018 15.6743 17.1662C15.4355 17.0305 15.1519 16.9942 14.886 17.0652C14.6201 17.1362 14.3936 17.3086 14.2564 17.5446C14.0176 17.409 13.734 17.3727 13.4681 17.4437C13.2022 17.5146 12.9757 17.6871 12.8384 17.9231C12.7012 18.1591 12.6644 18.4394 12.7363 18.7021C12.8081 18.9649 12.9826 19.1888 13.2214 19.3244C13.1535 19.4346 13.1081 19.5569 13.088 19.6843C13.0679 19.8118 13.0733 19.9419 13.1041 20.0673C13.1349 20.1927 13.1903 20.3109 13.2673 20.4151C13.3443 20.5193 13.4413 20.6075 13.5527 20.6746C13.6642 20.7418 13.788 20.7866 13.917 20.8065C14.046 20.8264 14.1776 20.821 14.3045 20.7905C14.4314 20.7601 14.551 20.7053 14.6564 20.6293C14.7618 20.5532 14.8511 20.4573 14.919 20.3472L15.954 20.951C15.9301 21.3211 15.9546 21.6927 16.027 22.0565L14.9921 22.6603C14.9241 22.5435 14.8335 22.441 14.7255 22.3587C14.6175 22.2765 14.4941 22.216 14.3624 22.1809C14.2307 22.1457 14.0934 22.1366 13.9581 22.1539C13.8229 22.1712 13.6924 22.2147 13.5741 22.2819C13.4559 22.349 13.3522 22.4385 13.2689 22.5453C13.1857 22.6521 13.1245 22.774 13.089 22.9041C13.0534 23.0342 13.0441 23.17 13.0616 23.3037C13.0792 23.4373 13.1232 23.5663 13.1911 23.6831C12.9523 23.8188 12.7778 24.0426 12.706 24.3054C12.6342 24.5682 12.6709 24.8484 12.8081 25.0844C12.9454 25.3204 13.1719 25.4929 13.4378 25.5639C13.7037 25.6349 13.9873 25.5985 14.2261 25.4629C14.2905 25.5818 14.3787 25.6866 14.4853 25.7708C14.5919 25.855 14.7147 25.917 14.8462 25.953C14.9778 25.9889 15.1153 25.9981 15.2506 25.9799C15.3858 25.9618 15.5159 25.9167 15.633 25.8474C15.7501 25.7781 15.8518 25.686 15.9318 25.5767C16.0118 25.4675 16.0685 25.3433 16.0985 25.2117C16.1285 25.0801 16.1312 24.9439 16.1064 24.8112C16.0815 24.6786 16.0297 24.5524 15.954 24.4401L16.9889 23.8257C17.2719 24.0676 17.5982 24.2551 17.9509 24.3785V25.5949C17.815 25.5949 17.6804 25.6214 17.5548 25.6728C17.4292 25.7242 17.3152 25.7995 17.219 25.8945C17.1229 25.9895 17.0467 26.1022 16.9947 26.2263C16.9427 26.3504 16.9159 26.4834 16.9159 26.6177C16.9159 26.752 16.9427 26.885 16.9947 27.0091C17.0467 27.1332 17.1229 27.246 17.219 27.3409C17.3152 27.4359 17.4292 27.5113 17.5548 27.5627C17.6804 27.6141 17.815 27.6405 17.9509 27.6405C17.9509 27.9118 18.0599 28.1719 18.254 28.3637C18.4481 28.5555 18.7113 28.6633 18.9858 28.6633C19.2603 28.6633 19.5236 28.5555 19.7177 28.3637C19.9117 28.1719 20.0208 27.9118 20.0208 27.6405C20.1567 27.6405 20.2913 27.6141 20.4168 27.5627C20.5424 27.5113 20.6565 27.4359 20.7526 27.3409C20.8487 27.246 20.925 27.1332 20.977 27.0091C21.029 26.885 21.0557 26.752 21.0557 26.6177C21.0557 26.4834 21.029 26.3504 20.977 26.2263C20.925 26.1022 20.8487 25.9895 20.7526 25.8945C20.6565 25.7995 20.5424 25.7242 20.4168 25.6728C20.2913 25.6214 20.1567 25.5949 20.0208 25.5949V24.3767C20.3735 24.2533 20.6997 24.0659 20.9827 23.824L22.0177 24.4384C21.8804 24.6744 21.8437 24.9546 21.9155 25.2174C21.9873 25.4802 22.1618 25.704 22.4007 25.8396C22.6395 25.9753 22.923 26.0116 23.1889 25.9406C23.4549 25.8696 23.6814 25.6972 23.8186 25.4611C24.0586 25.5968 24.3433 25.6326 24.61 25.5608C24.8768 25.489 25.1038 25.3154 25.241 25.0783C25.3782 24.8411 25.4145 24.5597 25.3419 24.2961C25.2692 24.0325 25.0936 23.8082 24.8536 23.6726C24.9908 23.4366 25.0276 23.1563 24.9557 22.8936C24.8839 22.6308 24.7094 22.4069 24.4706 22.2713C24.2318 22.1357 23.9482 22.0994 23.6823 22.1703C23.4164 22.2413 23.1899 22.4138 23.0526 22.6498L22.0177 22.046C22.0813 21.866 22.1296 21.6811 22.162 21.4932C22.1529 21.3073 22.1285 21.1224 22.0889 20.9404L23.1239 20.3366C23.2611 20.5726 23.4876 20.7451 23.7535 20.8161C24.0194 20.8871 24.303 20.8507 24.5418 20.7151C24.7806 20.5795 24.9552 20.3557 25.027 20.0929C25.0988 19.8301 25.0621 19.5498 24.9248 19.3138C25.0462 19.2488 25.1531 19.1605 25.2394 19.054C25.3257 18.9475 25.3895 18.8251 25.4272 18.6939C25.4649 18.5626 25.4756 18.4253 25.4588 18.2899C25.442 18.1545 25.3979 18.0238 25.3292 17.9055V17.9231ZM19.9567 20.9915C20.0465 21.1476 20.0932 21.3242 20.092 21.5038C20.0892 21.6828 20.0428 21.8585 19.9567 22.016C19.8439 22.2136 19.6678 22.3685 19.4562 22.4564C19.2445 22.5443 19.0094 22.5602 18.7876 22.5015C18.5659 22.4428 18.3702 22.313 18.2313 22.1324C18.0924 21.9517 18.0182 21.7306 18.0203 21.5038C18.0232 21.3247 18.0696 21.149 18.1557 20.9915C18.2473 20.835 18.3791 20.7053 18.5378 20.6155C18.6965 20.5256 18.8764 20.4789 19.0593 20.48C19.2422 20.481 19.4215 20.5299 19.5791 20.6216C19.7367 20.7133 19.867 20.8445 19.9567 21.0021V20.9915Z" fill="#F5F6FF"/>
</g>
<defs>
<clipPath id="clip0_494_2490">
<rect width="37.2727" height="37.8573" fill="white" transform="translate(0.45459 0.0216064)"/>
</clipPath>
</defs>
</svg>
