<svg width="71" height="74" viewBox="0 0 71 74" fill="none" xmlns="http://www.w3.org/2000/svg">
<path d="M35.3703 0C27.7748 0 26.6943 4.33799 26.6943 4.33799C26.6943 4.33799 14.2683 -2.76487 11.3922 4.08374C8.51608 10.9324 22.2292 18.4166 22.2292 18.4166C22.2292 18.4166 7.22899 35.1647 1.50857 48.6395C-4.21185 62.0983 7.56268 74 16.3181 74H35.3544H54.3907C63.1302 74 74.9047 62.1142 69.2002 48.6395C63.5116 35.1806 48.5113 18.4325 48.5113 18.4325C48.5113 18.4325 62.2245 10.9482 59.3484 4.09964C56.4723 -2.74898 44.0462 4.35387 44.0462 4.35387C44.0462 4.35387 42.9816 0 35.3703 0Z" fill="#E9BDBD"/>
<path d="M35.3721 63.1123C43.4898 63.1123 50.0704 56.5317 50.0704 48.414C50.0704 40.2964 43.4898 33.7157 35.3721 33.7157C27.2545 33.7157 20.6738 40.2964 20.6738 48.414C20.6738 56.5317 27.2545 63.1123 35.3721 63.1123Z" fill="#B62D2D"/>
<path d="M41.9998 42.4999C41.8123 42.3125 41.558 42.2072 41.2928 42.2072C41.0277 42.2072 40.7733 42.3125 40.5858 42.4999L35.9998 47.0859L31.4138 42.4999C31.2263 42.3125 30.972 42.2072 30.7068 42.2072C30.4417 42.2072 30.1873 42.3125 29.9998 42.4999C29.8123 42.6875 29.707 42.9418 29.707 43.2069C29.707 43.4721 29.8123 43.7264 29.9998 43.9139L34.5858 48.4999L29.9998 53.0859C29.8123 53.2735 29.707 53.5278 29.707 53.7929C29.707 54.0581 29.8123 54.3124 29.9998 54.4999C30.1873 54.6874 30.4417 54.7927 30.7068 54.7927C30.972 54.7927 31.2263 54.6874 31.4138 54.4999L35.9998 49.9139L40.5858 54.4999C40.7733 54.6874 41.0277 54.7927 41.2928 54.7927C41.558 54.7927 41.8123 54.6874 41.9998 54.4999C42.1873 54.3124 42.2926 54.0581 42.2926 53.7929C42.2926 53.5278 42.1873 53.2735 41.9998 53.0859L37.4138 48.4999L41.9998 43.9139C42.1873 43.7264 42.2926 43.4721 42.2926 43.2069C42.2926 42.9418 42.1873 42.6875 41.9998 42.4999V42.4999Z" fill="#F3F2FF"/>
<path d="M20.4175 17.0659H50.3385C52.007 17.0659 53.3576 18.4166 53.3576 20.085C53.3576 21.7535 52.007 23.1041 50.3385 23.1041H20.4175C18.7491 23.1041 17.3984 21.7535 17.3984 20.085C17.3984 18.4166 18.7491 17.0659 20.4175 17.0659Z" fill="#DE9C9C"/>
</svg>
